<svg xmlns="http://www.w3.org/2000/svg" viewBox="0 0 400 300">
  <rect width="400" height="300" fill="#F1F5F9"/>
  <g transform="translate(200,135)">
    <path d="M-65,-28 Q-54,-56 -20,-62 L20,-62 Q54,-56 65,-28 Z" fill="#CBD5E1"/>
    <rect x="-82" y="-30" width="164" height="52" rx="10" fill="#CBD5E1"/>
    <path d="M-60,-27 Q-50,-54 -18,-59 L18,-59 Q50,-54 60,-27 Z" fill="#DDE4EF"/>
    <rect x="-82" y="16" width="164" height="8" rx="4" fill="#B8C4D6"/>
    <circle cx="-52" cy="26" r="20" fill="#94A3B8"/>
    <circle cx="-52" cy="26" r="11" fill="#E2E8F0"/>
    <circle cx="52" cy="26" r="20" fill="#94A3B8"/>
    <circle cx="52" cy="26" r="11" fill="#E2E8F0"/>
    <rect x="-82" y="-18" width="14" height="9" rx="3" fill="#FDE68A"/>
    <rect x="68" y="-18" width="14" height="9" rx="3" fill="#FDE68A"/>
    <rect x="-82" y="-5" width="8" height="5" rx="2" fill="#FCA5A5"/>
    <rect x="74" y="-5" width="8" height="5" rx="2" fill="#FCA5A5"/>
  </g>
  <text x="200" y="228" font-family="system-ui,sans-serif" font-size="14" fill="#94A3B8" text-anchor="middle" font-weight="500">Foto não disponível</text>
</svg>
